<svg width="21" height="21" viewBox="0 0 21 21" fill="none" xmlns="http://www.w3.org/2000/svg">
<path d="M10.5 8H12.5L12.5 5L15.5 5V3L12.5 3L12.5 0L10.5 0L10.5 3L7.5 3L7.5 5L10.5 5L10.5 8ZM6.5 17C5.4 17 4.51 17.9 4.51 19C4.51 20.1 5.4 21 6.5 21C7.6 21 8.5 20.1 8.5 19C8.5 17.9 7.6 17 6.5 17ZM16.5 17C15.4 17 14.51 17.9 14.51 19C14.51 20.1 15.4 21 16.5 21C17.6 21 18.5 20.1 18.5 19C18.5 17.9 17.6 17 16.5 17ZM6.67 13.75L6.7 13.63L7.6 12L15.05 12C15.8 12 16.46 11.59 16.8 10.97L20.66 3.96L18.92 3H18.91L17.81 5L15.05 10L8.03 10L7.9 9.73L5.66 5L4.71 3L3.77 1L0.5 1L0.5 3L2.5 3L6.1 10.59L4.75 13.04C4.59 13.32 4.5 13.65 4.5 14C4.5 15.1 5.4 16 6.5 16L18.5 16V14L6.92 14C6.79 14 6.67 13.89 6.67 13.75Z" fill="#0D554A"/>
</svg>
