<svg viewBox = "0 0 59 41" width="59" height="41" xmlns="http://www.w3.org/2000/svg"><g transform="matrix(1 0 0 1 29.5 20.5)"  ><g style=""   ><g transform="matrix(1 0 0 1 0 0)"  ><rect style="stroke: rgb(255,255,255); stroke-width: 1; stroke-dasharray: none; stroke-linecap: butt; stroke-dashoffset: 0; stroke-linejoin: miter; stroke-miterlimit: 4; fill: rgb(255,255,255); fill-rule: nonzero; opacity: 1;"  x="-29" y="-20" rx="3.5" ry="3.5" width="58" height="40" /></g><g transform="matrix(1 0 0 1 -4.04 0.44)"  ><path style="stroke: none; stroke-width: 1; stroke-dasharray: none; stroke-linecap: butt; stroke-dashoffset: 0; stroke-linejoin: miter; stroke-miterlimit: 4; fill: rgb(21,25,90); fill-rule: nonzero; opacity: 1;"  transform=" translate(-25.46, -20.94)" d="M 26.1958 28.1191 L 22.2677 28.1191 L 24.7246 13.7683 L 28.6524 13.7683 L 26.1958 28.1191 Z" stroke-linecap="round" /></g><g transform="matrix(1 0 0 1 5.04 0.42)"  ><path style="stroke: none; stroke-width: 1; stroke-dasharray: none; stroke-linecap: butt; stroke-dashoffset: 0; stroke-linejoin: miter; stroke-miterlimit: 4; fill: rgb(21,25,90); fill-rule: nonzero; opacity: 1;"  transform=" translate(-34.54, -20.92)" d="M 40.4351 14.1192 C 39.6603 13.8288 38.4314 13.5082 36.9119 13.5082 C 33.0328 13.5082 30.3012 15.4622 30.2845 18.2559 C 30.2522 20.3171 32.2402 21.4619 33.7271 22.1492 C 35.2468 22.8515 35.7634 23.3099 35.7634 23.9358 C 35.7479 24.8972 34.5354 25.3404 33.4044 25.3404 C 31.8362 25.3404 30.9959 25.1119 29.7189 24.577 L 29.2017 24.3478 L 28.652 27.5692 C 29.5733 27.9657 31.2706 28.3175 33.0328 28.3329 C 37.1544 28.3329 39.8377 26.4091 39.8695 23.432 C 39.8852 21.7984 38.8355 20.5466 36.5723 19.5237 C 35.1985 18.8671 34.3571 18.4244 34.3571 17.7525 C 34.3732 17.1417 35.0687 16.5162 36.6196 16.5162 C 37.8966 16.4855 38.8348 16.7755 39.5456 17.0657 L 39.9009 17.218 L 40.4351 14.1192 L 40.4351 14.1192 L 40.4351 14.1192 Z" stroke-linecap="round" /></g><g transform="matrix(1 0 0 1 17.13 0.44)"  ><path style="stroke: none; stroke-width: 1; stroke-dasharray: none; stroke-linecap: butt; stroke-dashoffset: 0; stroke-linejoin: miter; stroke-miterlimit: 4; fill: rgb(21,25,90); fill-rule: evenodd; opacity: 1;"  transform=" translate(-46.63, -20.94)" d="M 47.4664 13.7683 L 50.5048 13.7683 L 53.6738 28.1189 L 50.0367 28.1189 C 50.0367 28.1189 49.6808 26.47 49.568 25.9662 L 44.5247 25.9662 C 44.3789 26.3476 43.7003 28.1189 43.7003 28.1189 L 39.5787 28.1189 L 45.4134 14.959 C 45.8176 14.0277 46.5295 13.7683 47.4664 13.7683 Z M 47.2244 19.0199 C 47.2244 19.0199 45.9797 22.2107 45.6562 23.0351 L 48.9211 23.0351 C 48.7596 22.3176 48.0158 18.8825 48.0158 18.8825 L 47.7412 17.646 C 47.6256 17.9644 47.4585 18.4022 47.3457 18.6975 C 47.2693 18.8976 47.2178 19.0323 47.2244 19.0199 Z" stroke-linecap="round" /></g><g transform="matrix(1 0 0 1 -15.34 0.44)"  ><path style="stroke: none; stroke-width: 1; stroke-dasharray: none; stroke-linecap: butt; stroke-dashoffset: 0; stroke-linejoin: miter; stroke-miterlimit: 4; fill: rgb(21,25,90); fill-rule: evenodd; opacity: 1;"  transform=" translate(-14.16, -20.94)" d="M 5.24794 13.7683 L 11.5678 13.7683 C 12.4244 13.7986 13.1195 14.0581 13.3457 14.9747 L 14.7191 21.5676 C 14.7193 21.5682 14.7195 21.5688 14.7197 21.5695 L 15.14 23.5542 L 18.9869 13.7683 L 23.1405 13.7683 L 16.9663 28.1038 L 12.8124 28.1038 L 9.31137 15.6344 C 8.10338 14.9672 6.72472 14.4307 5.18329 14.0583 L 5.24794 13.7683 Z" stroke-linecap="round" /></g></g></g></svg>