<svg width="1440" height="821" viewBox="0 0 1440 821" fill="none" xmlns="http://www.w3.org/2000/svg">
<g clip-path="url(#clip0_1_71)">
<path d="M580.08 426.347C568.44 426.347 556.8 424.788 544.92 421.551C512.64 412.918 492.24 394.573 470.64 375.27C457.08 363.04 442.92 350.45 425.64 340.379C408.72 330.547 386.28 322.634 357.24 316.279C332.04 310.763 306.12 307.286 285.36 304.409C253.08 300.092 225.36 298.294 200.64 299.133C167.4 300.092 139.44 305.848 117.6 316.039C99.9599 324.312 86.7599 335.103 74.0399 345.654C59.5199 357.644 45.7199 369.035 26.6399 375.749C19.9199 379.586 11.0399 382.703 -1.68011 384.982C-28.8001 389.897 -60.2401 383.902 -97.5601 366.397C-102.84 363.999 -108 361.361 -113.16 358.604C-153.84 340.019 -192.96 313.521 -227.76 289.901C-239.4 281.987 -250.56 274.434 -261.12 267.599L-261 267.36C-240.72 277.551 -217.68 292.778 -193.32 308.965C-167.28 326.231 -140.4 344.096 -113.04 358.364C-71.8801 377.188 -29.0401 387.859 12.7199 379.346C17.6399 378.387 22.1999 377.068 26.5199 375.509C37.5599 369.275 42.7199 361.002 48.8399 351.05C54.9599 341.098 62.0399 329.827 76.9199 317.118C92.3999 303.929 111.84 295.176 136.56 290.26C158.28 286.064 180.96 285.225 202.92 284.625C204.36 284.625 205.92 284.505 207.36 284.505C235.44 283.546 261.24 284.505 286.32 287.143C311.04 289.781 334.44 294.217 357.72 300.692C401.52 312.682 444.36 331.626 492.6 360.162C542.16 389.538 589.32 399.729 641.04 392.535C663 389.418 684.96 383.423 707.04 375.509C725.64 364.239 744.96 353.208 765.48 345.055C786.12 336.902 805.92 329.827 825 322.993C846.6 315.2 867.36 307.766 887.64 299.493C927.12 281.628 963.84 261.365 1001.52 229.111C1014.12 218.32 1026.36 206.69 1038.24 195.539C1068.48 166.883 1097.16 139.786 1129.32 127.916C1146.6 121.561 1163.4 120.122 1180.8 123.48C1200.12 127.196 1219.92 136.788 1241.16 152.615C1252.44 161.128 1261.92 172.758 1270.8 184.868C1271.52 185.588 1272.12 186.427 1272.84 187.146C1291.44 207.41 1309.08 226.713 1340.52 238.943C1358.76 246.137 1378.2 250.454 1397.76 253.811C1404.84 253.211 1412.16 252.372 1419.48 251.533C1449 248.295 1479.48 244.938 1507.8 252.732C1519.56 255.969 1531.32 260.525 1542.6 264.962C1562.4 272.755 1582.92 280.669 1604.52 282.107C1618.68 282.947 1636.08 278.031 1654.44 272.755C1671.24 267.959 1688.64 262.923 1704.48 262.324C1722.36 261.724 1735.56 267 1744.8 278.51L1744.92 278.75H1744.68C1724.76 277.791 1707.12 286.424 1688.52 295.536C1667.64 305.728 1645.92 316.279 1619.52 313.881C1592.4 311.483 1566.96 300.572 1542.36 290.021C1530 284.745 1517.16 279.23 1504.32 274.913C1479.24 266.52 1452.48 262.564 1426.56 258.607C1416.96 257.168 1407.36 255.729 1397.76 254.051C1375.32 255.969 1354.2 256.209 1335.24 249.494C1310.04 240.502 1293.84 217.721 1278.24 195.539C1275.72 192.062 1273.2 188.465 1270.68 184.988C1258.68 171.919 1246.08 158.49 1229.04 146.62C1210.92 134.031 1193.64 127.077 1176.24 125.278C1160.64 123.599 1145.28 126.117 1129.32 132.952C1099.56 145.541 1072.2 171.32 1045.68 196.259C1033.44 207.769 1020.72 219.759 1008 230.071C980.52 252.492 952.08 270.357 918.36 286.304C908.28 291.1 898.2 295.416 887.88 299.613C871.68 306.927 855 314.001 837.6 321.195C825.96 326.111 813.84 331.146 801.48 336.542C795.36 339.18 789.24 341.818 783.24 344.455C757.32 355.846 732 366.877 707.16 375.629C704.04 377.548 700.92 379.346 697.92 381.265C673.92 395.892 651.24 409.681 626.4 418.194C613.08 422.75 600.36 425.388 587.64 426.107C585.12 426.227 582.6 426.347 580.08 426.347ZM212.16 298.773C234 298.773 258.12 300.572 285.48 304.289C306.24 307.047 332.04 310.524 357.36 316.159C386.4 322.514 408.84 330.427 425.88 340.259C443.28 350.33 457.32 362.92 470.88 375.15C492.48 394.573 512.88 412.798 545.04 421.431C559.56 425.268 573.48 426.827 587.76 425.987C600.48 425.268 613.08 422.63 626.4 418.074C651.24 409.561 673.92 395.772 697.92 381.145C700.68 379.466 703.44 377.788 706.2 376.109C684.36 383.783 662.88 389.777 641.28 392.775C589.44 399.969 542.28 389.658 492.6 360.282C444.36 331.746 401.52 312.922 357.84 300.812C334.56 294.457 311.28 290.021 286.56 287.383C261.48 284.625 235.68 283.786 207.72 284.745C206.28 284.745 204.72 284.865 203.28 284.865C181.32 285.584 158.64 286.304 137.04 290.5C112.44 295.296 92.8799 304.049 77.5199 317.238C62.6399 329.947 55.6799 341.218 49.5598 351.17C43.5598 360.762 38.6399 368.795 28.3199 375.03C46.6799 368.196 60.2399 357.045 74.3999 345.415C87.1199 334.863 100.44 323.952 117.96 315.679C139.8 305.488 167.76 299.853 201.12 298.773C204.48 298.773 208.2 298.773 212.16 298.773ZM-109.08 360.522C-105.24 362.56 -101.28 364.479 -97.3201 366.277C-60.0001 383.663 -28.6801 389.777 -1.56012 384.862C10.3199 382.703 18.8399 379.826 25.3199 376.349C21.3599 377.668 17.2799 378.867 12.8399 379.706C-27.6001 387.859 -69.1201 378.147 -109.08 360.522ZM882.12 302.011C863.64 309.444 844.68 316.159 825.12 323.233C805.92 330.067 786.24 337.261 765.6 345.295C745.44 353.208 726.48 364.119 708.12 375.15C732.6 366.397 757.56 355.486 783.12 344.335C789 341.698 795.24 339.06 801.36 336.422C813.72 331.027 825.84 325.991 837.48 321.075C852.96 314.6 867.72 308.485 882.12 302.011ZM-258.96 268.678C-249 275.153 -238.56 282.227 -227.52 289.781C-193.8 312.562 -156.24 338.101 -117 356.565C-142.92 342.657 -168.48 325.751 -193.32 309.205C-216.96 293.618 -239.16 278.87 -258.96 268.678ZM1398.72 254.051C1408.08 255.609 1417.44 257.048 1426.68 258.367C1452.6 262.204 1479.48 266.161 1504.44 274.673C1517.28 278.99 1530 284.505 1542.48 289.781C1567.08 300.332 1592.52 311.243 1619.52 313.641C1645.92 316.039 1667.52 305.488 1688.4 295.296C1707 286.184 1724.64 277.671 1744.44 278.51C1735.2 267.12 1722.12 261.964 1704.48 262.564C1688.76 263.163 1671.36 268.079 1654.56 272.995C1636.2 278.271 1618.8 283.306 1604.52 282.347C1582.92 281.028 1562.4 272.995 1542.6 265.201C1531.2 260.765 1519.56 256.209 1507.8 252.972C1479.48 245.178 1449 248.535 1419.48 251.773C1412.52 252.732 1405.56 253.451 1398.72 254.051ZM1162.92 122.041C1151.76 122.041 1140.72 124.079 1129.56 128.156C1097.4 139.906 1068.84 167.003 1038.6 195.659C1026.84 206.81 1014.6 218.44 1001.88 229.231C966 259.926 930.96 279.709 893.76 296.975C902.04 293.498 910.2 289.901 918.24 286.064C951.96 270.117 980.4 252.252 1007.76 229.831C1020.36 219.52 1033.08 207.529 1045.44 196.019C1071.96 171.08 1099.32 145.301 1129.2 132.712C1145.28 125.878 1160.64 123.36 1176.24 125.038C1193.76 126.837 1211.16 133.911 1229.16 146.5C1245.48 157.891 1257.84 170.72 1269.36 183.19C1260.84 171.679 1251.84 160.768 1241.16 152.735C1220.04 136.908 1200.24 127.316 1180.92 123.599C1174.8 122.52 1168.92 122.041 1162.92 122.041ZM1272.12 186.667C1274.28 189.664 1276.32 192.542 1278.48 195.539C1294.08 217.601 1310.28 240.382 1335.36 249.375C1354.08 256.089 1374.84 255.969 1396.92 254.051C1377.6 250.693 1358.52 246.377 1340.52 239.303C1308.96 226.953 1291.44 207.769 1272.84 187.386C1272.48 187.146 1272.24 186.907 1272.12 186.667Z" fill="#FBECCE" fill-opacity="0.4"/>
<path d="M655.44 676.952C633.36 676.232 609.96 670.837 584.64 659.087C547.2 641.701 527.64 613.285 508.68 585.828C484.2 550.457 461.16 517.005 402.6 511.49C355.56 507.054 309.96 520.602 265.92 533.551C231.72 543.623 196.44 554.174 160.8 556.093C153.36 556.452 146.04 556.572 138.72 556.332C43.7999 553.335 -42.7201 499.38 -117.12 448.183L-117 447.943C-92.8801 458.254 -68.7601 471.923 -43.2001 486.431C-13.0801 503.576 18.1199 521.202 50.0399 533.312C86.0399 546.98 118.32 551.656 148.68 547.58C184.08 542.784 215.16 531.513 245.16 520.602C267.24 512.569 290.04 504.296 314.04 498.9C340.92 492.785 366.72 490.867 392.76 493.025C432 496.263 488.28 504.536 523.56 538.227C538.44 552.376 548.64 570.361 558.48 587.866C571.32 610.527 584.64 634.028 608.52 649.735C626.88 661.844 644.76 669.038 663 671.556C679.32 673.834 695.52 672.396 712.8 667.24C744.84 657.528 774.24 636.546 805.44 614.364C817.08 606.091 829.08 597.578 841.08 589.665C881.28 563.526 927.12 546.98 971.52 531.033C1008.36 517.725 1046.52 503.936 1081.44 484.752C1110.84 468.566 1135.8 451.18 1157.76 435.833C1192.32 411.733 1222.08 390.87 1255.56 384.156C1273.2 380.559 1290.96 381.039 1309.92 385.595C1330.56 390.511 1352.64 400.223 1377.48 415.21C1418.64 440.029 1461.24 459.213 1511.52 475.64C1556.52 490.268 1602.48 500.939 1651.2 512.329C1664.88 515.446 1678.92 518.804 1693.2 522.161C1702.08 524.319 1710 526.717 1717.68 529.115C1730.16 532.952 1741.8 536.549 1754.16 537.508C1767.72 538.587 1780.8 536.549 1795.08 530.914C1805.64 526.837 1814.4 518.444 1822.92 510.411C1833.24 500.579 1842.96 491.347 1854.36 491.706C1854.48 491.706 1854.48 491.706 1854.6 491.706C1862.76 492.066 1871.04 497.222 1880.16 507.653L1880.4 507.893L1880.04 507.773C1856.4 501.898 1838.76 517.485 1820.28 533.911C1807.68 545.062 1794.72 556.572 1778.88 562.447C1761.96 568.682 1745.04 571.799 1727.4 571.919C1711.68 572.039 1695.36 569.881 1675.8 565.205C1635.72 555.613 1592.4 543.383 1550.52 529.715C1505.28 515.087 1462.68 499.14 1427.16 483.673C1405.08 474.081 1386.12 464.489 1369.32 456.096C1335.24 438.95 1308.24 425.402 1278.36 422.884C1262.88 421.565 1246.92 423.363 1229.52 428.159C1211.16 433.315 1190.76 442.068 1167 454.897C1118.4 481.275 1066.2 501.298 1015.68 520.722C962.64 541.105 907.92 562.088 857.76 590.264C842.76 598.657 828.12 607.769 813.84 616.642C762.84 648.416 713.64 678.87 655.44 676.952ZM390.6 510.65C394.56 510.77 398.64 511.01 402.72 511.37C461.4 516.885 484.44 550.337 508.92 585.828C527.88 613.285 547.44 641.581 584.76 658.967C676.44 701.651 743.28 660.286 814.08 616.522C828.36 607.77 843 598.657 858 590.144C908.04 561.968 962.88 540.865 1015.92 520.482C1066.44 501.059 1118.64 481.035 1167.24 454.657C1191 441.828 1211.4 433.075 1229.76 427.919C1247.16 423.123 1263.12 421.325 1278.6 422.644C1308.48 425.162 1335.48 438.711 1369.56 455.856C1386.36 464.249 1405.32 473.841 1427.4 483.433C1462.92 498.9 1505.64 514.847 1550.76 529.475C1592.64 543.024 1636.08 555.373 1676.04 564.965C1695.48 569.641 1711.8 571.8 1727.52 571.56C1745.28 571.44 1762.08 568.322 1779 562.088C1794.72 556.332 1807.8 544.822 1820.28 533.671C1838.76 517.245 1856.28 501.778 1879.92 507.413C1871.04 497.342 1862.76 492.186 1854.84 491.826C1854.72 491.826 1854.72 491.826 1854.6 491.826C1843.2 491.467 1833.6 500.699 1823.28 510.531C1814.76 518.684 1806 526.957 1795.44 531.153C1781.04 536.789 1767.96 538.827 1754.4 537.748C1742.16 536.669 1730.4 533.072 1717.92 529.355C1710.24 526.957 1702.32 524.559 1693.44 522.401C1679.16 519.044 1665.12 515.686 1651.44 512.569C1602.72 501.298 1556.76 490.507 1511.76 475.88C1461.48 459.573 1418.88 440.389 1377.72 415.45C1352.88 400.462 1330.8 390.75 1310.16 385.835C1291.2 381.278 1273.44 380.799 1255.92 384.396C1222.56 391.11 1192.68 411.973 1158.24 436.073C1136.28 451.42 1111.32 468.925 1081.92 484.992C1047 504.176 1008.84 517.964 972 531.273C927.72 547.22 881.76 563.766 841.68 589.904C829.68 597.698 817.68 606.331 806.04 614.604C774.84 636.785 745.44 657.768 713.28 667.48C696 672.755 679.68 674.074 663.36 671.796C645.12 669.158 627.24 662.084 608.76 649.854C584.88 634.148 571.56 610.647 558.6 587.866C548.76 570.481 538.56 552.496 523.68 538.347C488.4 504.656 432.24 496.502 393 493.265C366.96 491.107 341.16 493.025 314.28 499.14C290.28 504.655 267.48 512.809 245.4 520.842C215.28 531.753 184.2 543.023 148.92 547.82C132.6 549.978 116.28 549.738 98.7599 546.98C83.2799 544.462 67.3199 540.146 50.1599 533.551C18.2399 521.441 -12.9601 503.696 -43.0801 486.671C-68.1601 472.402 -92.0401 458.974 -115.8 448.662C-36.0001 503.576 57.8399 561.368 160.92 555.853C196.56 553.934 231.84 543.503 266.04 533.312C306.12 521.561 347.76 509.212 390.6 510.65Z" fill="#FBECCE" fill-opacity="0.4"/>
<path d="M226.324 168.42C213.964 167.221 202.324 164.103 190.804 158.828C180.244 154.032 169.924 147.557 159.484 139.164C140.044 123.337 123.244 103.434 105.484 82.4516C77.4038 49.1194 48.3638 14.7081 7.80377 -2.19785C-3.47623 -6.87395 -18.4762 -10.4709 -34.3162 -14.3077C-55.1962 -19.3435 -78.9562 -24.9788 -98.3962 -34.4509C-120.716 -45.2419 -134.036 -59.3901 -139.196 -77.7348C-139.316 -78.2144 -139.196 -78.694 -138.836 -79.0537C-134.876 -82.7706 -96.8362 -71.3801 -25.9162 -45.4817C-22.6762 -44.2827 -20.5162 -43.4434 -19.7962 -43.2036C-2.15622 -37.2086 18.8438 -33.8514 39.1238 -30.4942C64.9238 -26.2977 91.5638 -21.9813 112.084 -12.3893C148.564 4.75636 164.164 38.4483 179.164 70.9412C187.564 89.166 196.324 107.99 208.564 122.978C215.164 131.131 222.244 137.606 230.164 142.761C239.044 148.516 248.884 152.713 260.164 155.231C315.124 167.82 396.004 136.886 467.284 109.669C502.444 96.2401 535.564 83.5307 562.684 77.1759C600.724 68.1835 641.044 56.3134 679.924 44.9229C750.844 23.9403 824.404 2.23846 893.644 -5.19534C915.364 -7.59335 936.964 -7.59335 959.524 -5.31525C959.884 -5.31525 960.244 -5.19534 960.484 -5.19534C980.884 -3.15704 1001.76 0.799652 1024.08 6.79465C1065.6 17.9454 1106.4 34.7313 1145.76 50.9178C1186.44 67.7038 1228.56 84.9695 1271.52 96.1201C1291.68 101.276 1310.64 104.873 1329.12 106.791C1337.28 106.791 1345.44 106.432 1353.48 105.712C1383.96 103.314 1414.8 100.197 1445.64 96.8396C1462.08 92.4033 1481.52 86.768 1503.24 80.2934C1571.52 60.2701 1656.6 35.3309 1729.92 25.3792C1769.76 19.9837 1802.28 19.6239 1826.4 24.42C1839.96 27.1777 1851.24 31.494 1860 37.4891C1869.24 43.8438 1875.96 52.1169 1879.8 62.1884V62.3083H1879.68C1835.4 70.4615 1788 70.4615 1742.16 70.4615C1704.72 70.4615 1665.84 70.4616 1628.76 74.8979C1606.8 77.5357 1584.24 80.2934 1562.52 83.0511C1524.12 87.8471 1484.88 92.763 1445.64 97.0794C1429.44 101.396 1416.24 104.633 1406.76 105.952C1383.84 109.189 1361.04 109.789 1337.28 107.87C1334.52 107.631 1331.76 107.391 1329 107.151C1316.04 107.151 1302.84 106.432 1289.28 104.993C1269.6 102.835 1249.44 99.1177 1227.72 93.4824C1187.4 83.171 1147.8 68.0636 1109.52 53.4358C1063.08 35.8105 1015.2 17.4658 966.964 8.35336C941.044 3.43746 917.044 1.51906 893.524 2.35836C867.244 3.31756 842.164 7.75385 816.964 15.9071C718.804 47.6805 621.964 76.4566 521.164 103.674C499.804 109.429 476.524 116.743 451.924 124.536C377.644 148.037 293.404 174.535 227.164 168.66C227.164 168.54 226.684 168.54 226.324 168.42ZM-133.676 -79.4134C-136.316 -79.6532 -137.996 -79.5333 -138.716 -78.9338C-138.956 -78.694 -139.076 -78.3343 -138.956 -77.8547C-133.796 -59.6299 -120.476 -45.4817 -98.2762 -34.6907C-78.8362 -25.2186 -55.1962 -19.5833 -34.3162 -14.5475C-18.4762 -10.7107 -3.47623 -7.11374 7.80377 -2.43764C48.3638 14.4683 77.5238 48.9995 105.604 82.3316C123.364 103.434 140.164 123.337 159.604 139.044C170.044 147.557 180.244 153.912 190.804 158.708C202.684 164.103 214.564 167.221 227.404 168.3C293.524 174.175 377.764 147.557 452.044 124.177C476.764 116.383 500.044 109.069 521.284 103.314C622.204 75.977 718.924 47.3209 817.084 15.5474C842.284 7.39416 867.364 2.95786 893.764 1.99866C917.284 1.15936 941.284 3.19765 967.204 7.99365C1015.44 17.1061 1063.44 35.4508 1109.76 53.076C1148.04 67.7039 1187.52 82.6914 1227.84 93.0028C1249.56 98.5182 1269.72 102.355 1289.4 104.513C1302.24 105.952 1314.6 106.671 1326.96 106.671C1309.08 104.633 1290.84 101.276 1271.52 96.2401C1228.56 85.0894 1186.44 67.8238 1145.64 51.0378C1106.4 34.8513 1065.72 18.0653 1024.08 6.91455C1001.76 0.919556 980.884 -3.03715 960.484 -5.07545C960.124 -5.07545 959.764 -5.19534 959.524 -5.19534C936.964 -7.47344 915.484 -7.35355 893.644 -5.07545C824.404 2.35835 750.844 24.0602 679.804 44.9229C640.924 56.4332 600.604 68.1835 562.564 77.1759C535.564 83.5307 502.324 96.2401 467.164 109.669C395.764 137.006 314.884 167.94 259.924 155.231C248.644 152.593 238.804 148.516 229.804 142.761C221.884 137.606 214.804 131.131 208.204 122.978C195.964 107.87 187.204 89.0461 178.804 70.8213C163.804 38.3284 148.204 4.75636 111.844 -12.3893C91.4438 -21.7415 64.8038 -26.1778 39.0038 -30.2544C18.8438 -33.6116 -2.15622 -36.9688 -19.7962 -42.9638C-20.5162 -43.2036 -22.6762 -44.0429 -25.9162 -45.2419C-37.5562 -49.4384 -64.5562 -59.2702 -89.0362 -67.3035C-111.356 -74.6174 -126.236 -78.694 -133.676 -79.4134ZM1331.52 106.911C1333.56 107.151 1335.6 107.271 1337.64 107.511C1361.4 109.429 1384.2 108.83 1407.12 105.592C1416.24 104.273 1428.96 101.276 1444.44 97.1993C1414.08 100.556 1383.84 103.554 1353.84 105.952C1346.4 106.432 1338.96 106.791 1331.52 106.911ZM1810.92 22.2618C1789.08 20.1036 1762.08 21.1827 1730.28 25.4991C1656.96 35.4508 1571.88 60.39 1503.6 80.4133C1482.48 86.6481 1463.52 92.1635 1447.44 96.4799C1486.08 92.1635 1524.84 87.3674 1562.76 82.5715C1584.48 79.8138 1607.04 77.0561 1629 74.4183C1666.08 69.982 1704.84 69.9819 1742.4 69.9819C1788.12 69.9819 1835.52 69.982 1879.8 61.8288C1875.96 51.8771 1869.36 43.7239 1860.24 37.3692C1851.6 31.4941 1840.32 27.0578 1826.76 24.42C1821.72 23.5807 1816.44 22.8613 1810.92 22.2618Z" fill="#FBECCE" fill-opacity="0.4"/>
<path d="M816.476 843.043C807.476 841.245 798.236 839.326 789.116 837.648C776.396 835.25 763.316 833.092 750.716 831.053C711.116 824.459 670.316 817.505 631.196 804.795C605.996 796.522 581.636 782.494 557.996 768.825C531.476 753.478 503.996 737.531 475.556 730.337C416.516 715.35 347.996 735.253 287.516 752.759C270.116 757.794 253.796 762.59 238.196 766.307C200.516 775.54 170.876 775.18 145.076 765.228C121.796 756.356 103.916 740.529 84.9558 723.743C72.9558 713.072 60.4758 702.161 45.7158 691.969C29.0358 680.459 11.7558 671.706 -6.84418 665.351C-26.8842 658.517 -48.9642 654.56 -72.6042 653.361C-93.8442 652.282 -116.884 653.481 -141.124 656.958C-180.604 662.714 -223.324 674.224 -271.804 692.209H-271.924V692.089C-278.164 679.02 -277.924 668.109 -271.324 659.476C-264.484 650.724 -250.924 644.369 -231.004 640.532C-214.444 637.415 -193.444 635.856 -168.724 636.216C-121.204 636.815 -76.9242 643.53 -65.1642 645.928C-28.5642 653.122 7.07584 669.668 41.5158 685.615C62.9958 695.566 85.3159 705.998 107.276 713.791C131.876 722.544 153.716 727.1 174.116 727.819C217.196 729.378 259.916 718.827 301.316 708.635C348.956 696.885 398.276 684.775 449.516 690.291C474.596 693.048 500.996 700.122 530.036 711.993C555.956 722.664 581.876 736.092 606.956 749.042C651.716 772.302 697.916 796.282 748.796 806.833C755.876 808.272 762.956 809.831 769.796 811.39C807.476 819.543 843.116 827.336 874.076 822.66C890.636 820.142 904.556 814.387 916.556 804.915C929.996 794.364 940.916 779.616 950.156 759.593C956.036 746.644 959.996 735.013 963.476 724.702C965.636 718.227 967.796 712.112 970.076 706.357C970.436 703.6 970.916 700.962 971.516 698.324C974.756 685.854 982.436 675.063 995.636 664.512C1005.48 656.719 1017.6 651.323 1031.88 648.805C1044.24 646.527 1058.52 646.287 1074.48 647.846C1103.88 650.844 1134.12 659.956 1158.36 667.15C1162.92 668.469 1167.24 669.788 1171.32 670.987C1183.92 674.584 1196.76 678.541 1209.24 682.257C1247.16 693.528 1285.92 705.158 1325.16 713.791C1342.68 716.309 1360.32 718.227 1377.96 719.187C1411.2 720.985 1442.28 719.306 1470 713.911C1501.44 707.916 1530.12 697.245 1555.44 682.018C1572.96 671.466 1587.6 659.117 1601.64 647.127C1620.36 631.18 1638 616.073 1661.88 605.521C1676.52 599.047 1691.16 595.57 1705.32 592.212C1731 586.217 1755.24 580.462 1777.32 558.161L1777.8 557.681L1777.56 558.281C1761.24 595.809 1711.44 630.82 1672.44 653.481C1622.76 682.377 1570.2 703.6 1540.32 713.072C1513.56 721.465 1486.2 726.261 1456.68 727.58C1430.4 728.779 1403.16 727.22 1373.28 722.903C1357.2 720.625 1341.12 717.508 1325.16 714.031C1281.12 707.556 1237.68 696.885 1196.4 685.734C1184.76 682.617 1172.76 678.78 1160.04 674.704C1137.48 667.39 1114.2 659.956 1090.92 656.119C1064.52 651.803 1042.08 653.002 1022.64 659.836C1003.08 666.67 990.356 674.943 981.356 686.574C976.796 692.569 973.316 699.163 970.436 706.477C969.356 715.35 970.076 724.462 970.796 734.054C971.636 745.804 972.716 759.233 970.676 774.101C966.236 806.594 955.676 828.415 938.276 840.765C928.196 847.959 916.316 851.556 903.236 852.875C877.796 855.513 847.676 849.398 816.476 843.043ZM963.596 724.942C960.116 735.253 956.156 747.003 950.156 759.833C941.036 779.856 929.996 794.724 916.556 805.275C904.436 814.747 890.516 820.622 873.956 823.14C842.996 827.816 807.356 820.022 769.556 811.869C762.716 810.43 755.636 808.872 748.556 807.313C697.676 796.762 651.356 772.782 606.596 749.521C581.516 736.572 555.716 723.023 529.676 712.472C500.636 700.602 474.236 693.528 449.156 690.77C398.036 685.255 348.716 697.365 301.076 709.115C259.676 719.306 216.956 729.858 173.876 728.299C153.596 727.58 131.636 723.023 107.036 714.271C85.0758 706.477 62.7559 696.166 41.2758 686.094C33.1158 682.257 24.8358 678.421 16.5558 674.704C45.5958 688.612 66.3559 706.957 85.0759 723.503C104.036 740.169 121.916 755.996 145.196 764.868C170.996 774.82 200.516 775.06 238.196 765.948C253.796 762.111 270.236 757.435 287.516 752.399C347.996 734.894 416.636 714.99 475.676 729.978C504.116 737.172 531.596 753.118 558.236 768.465C581.756 782.014 606.116 796.162 631.316 804.435C670.436 817.265 711.236 824.099 750.836 830.694C763.436 832.852 776.396 835.01 789.236 837.288C798.356 838.967 807.716 840.885 816.596 842.684C863.996 852.396 908.636 861.508 938.036 840.645C955.436 828.296 965.996 806.594 970.316 774.101C972.356 759.233 971.276 745.924 970.436 734.174C969.716 724.822 968.996 715.949 969.956 707.316C967.676 712.952 965.756 718.827 963.596 724.942ZM1705.44 592.812C1691.28 596.169 1676.52 599.646 1662 606.121C1638.24 616.672 1620.6 631.779 1601.88 647.726C1587.84 659.716 1573.2 672.186 1555.68 682.737C1530.36 697.964 1501.56 708.635 1470.12 714.63C1442.28 719.906 1411.32 721.704 1377.96 719.906C1361.4 718.947 1344.96 717.268 1328.4 714.99C1343.28 718.227 1358.28 720.985 1373.28 723.143C1403.16 727.46 1430.4 729.018 1456.68 727.819C1486.2 726.501 1513.56 721.704 1540.2 713.311C1570.08 703.959 1622.52 682.737 1672.2 653.721C1742.04 613.075 1767.72 579.983 1776.96 559.24C1755.12 581.062 1731 586.817 1705.44 592.812ZM1031.88 649.165C1017.72 651.803 1005.48 657.078 995.756 664.872C982.676 675.423 974.996 686.094 971.756 698.564C971.156 700.962 970.676 703.36 970.436 705.758C973.316 698.804 976.676 692.329 981.116 686.574C990.116 674.943 1002.84 666.67 1022.52 659.836C1042.08 653.002 1064.52 651.803 1090.92 656.119C1114.2 659.956 1137.6 667.51 1160.16 674.704C1172.88 678.78 1184.76 682.617 1196.52 685.734C1236.84 696.525 1279.08 706.957 1321.92 713.431C1283.88 704.919 1246.2 693.648 1209.36 682.617C1196.88 678.9 1184.04 675.063 1171.44 671.346C1167.36 670.147 1163.04 668.829 1158.48 667.51C1134.24 660.196 1104 651.203 1074.6 648.206C1062.48 647.007 1051.32 646.887 1041.36 647.846C1038 648.206 1034.88 648.685 1031.88 649.165ZM-231.004 641.012C-250.924 644.849 -264.484 651.203 -271.204 659.836C-277.804 668.349 -278.044 679.14 -271.804 692.089C-223.324 674.104 -180.604 662.594 -141.124 656.839C-116.884 653.361 -93.8442 652.162 -72.6042 653.122C-48.9642 654.321 -26.7642 658.397 -6.84418 665.112C-3.24417 666.311 0.115845 667.63 3.47583 668.948C-19.0842 659.237 -42.1242 650.844 -65.4042 646.287C-77.1642 644.009 -121.324 637.295 -168.844 636.575C-184.804 636.336 -199.204 636.935 -211.804 638.134C-218.764 638.973 -225.124 639.813 -231.004 641.012Z" fill="#FBECCE" fill-opacity="0.4"/>
</g>
<defs>
<clipPath id="clip0_1_71">
<rect width="1440" height="821" fill="white"/>
</clipPath>
</defs>
</svg>
