<svg width="20" height="16" viewBox="0 0 20 16" fill="none" xmlns="http://www.w3.org/2000/svg">
<path d="M19.5998 2.05995C18.8798 2.35995 18.1598 2.59995 17.3198 2.65995C18.1598 2.17995 18.7598 1.39995 19.0598 0.499951C18.2798 0.979951 17.4398 1.27995 16.5398 1.45995C15.8198 0.679951 14.7998 0.199951 13.7198 0.199951C11.5598 0.199951 9.75984 1.93995 9.75984 4.15995C9.75984 4.45995 9.81984 4.75995 9.87984 5.05995C6.57984 4.87995 3.69984 3.31995 1.71984 0.919951C1.35984 1.51995 1.17984 2.17995 1.17984 2.89995C1.17984 4.27995 1.89984 5.47995 2.91984 6.19995C2.25984 6.19995 1.65984 6.01995 1.11984 5.71995V5.77995C1.11984 7.69995 2.49984 9.25995 4.29984 9.61995C3.93984 9.67995 3.63984 9.73995 3.27984 9.73995C3.03984 9.73995 2.79984 9.73995 2.55984 9.67995C3.03984 11.24 4.53984 12.38 6.21984 12.44C4.89984 13.52 3.15984 14.12 1.29984 14.12C0.999844 14.12 0.639844 14.12 0.339844 14.06C2.13984 15.14 4.23984 15.8 6.45984 15.8C13.7198 15.8 17.6798 9.79995 17.6798 4.57995C17.6798 4.39995 17.6798 4.21995 17.6798 4.09995C18.3998 3.49995 19.0598 2.83995 19.5998 2.05995Z" fill="white"/>
</svg>
