<svg width="20" height="20" viewBox="0 0 20 20" fill="none" xmlns="http://www.w3.org/2000/svg">
<path d="M19.5999 10.0001C19.5996 8.16556 19.0737 6.36951 18.0844 4.82459C17.095 3.27966 15.6838 2.05056 14.0176 1.28278C12.3514 0.515005 10.5002 0.240712 8.68298 0.492373C6.86578 0.744034 5.15874 1.51111 3.76395 2.70279C2.36915 3.89447 1.34502 5.46086 0.812786 7.2165C0.280554 8.97214 0.262513 10.8435 0.7608 12.6091C1.25909 14.3747 2.25283 15.9605 3.62439 17.1789C4.99595 18.3972 6.68789 19.1971 8.4999 19.4837L8.4999 12.7751H6.0627V10.0001H8.4999V7.88511C8.4999 5.47911 9.9333 4.15011 12.1257 4.15011C12.8457 4.16009 13.564 4.22266 14.2749 4.33731V6.70011L13.0641 6.70011C12.8578 6.6727 12.6479 6.69208 12.4501 6.75681C12.2523 6.82153 12.0716 6.92994 11.9213 7.074C11.7711 7.21806 11.6552 7.39408 11.5823 7.58902C11.5093 7.78396 11.4812 7.99281 11.4999 8.20011V10.0001H14.1627L13.7367 12.7751H11.4999L11.4999 19.4837C13.7582 19.1265 15.8148 17.975 17.2997 16.2364C18.7846 14.4979 19.6003 12.2865 19.5999 10.0001Z" fill="white"/>
</svg>
